<svg xmlns="http://www.w3.org/2000/svg" viewBox="0 0 383.9 231.31"><defs><style>.cls-1{fill:#15499f;}</style></defs><g id="Слой_2" data-name="Слой 2"><g id="Слой_1-2" data-name="Слой 1"><path class="cls-1" d="M383.9,222.9c-2.8,6.4-7.7,8.5-14.6,8.4q-177.3-.15-354.7,0c-6.9,0-11.8-2-14.6-8.4V8.4C2.8,2,7.7-.1,14.6,0Q191.9.15,369.3,0c6.9,0,11.8,2,14.6,8.4Zm-22.7-14.3V22.8H22.7V208.6Z"/><path class="cls-1" d="M280.4,174.1c-6.7-3.1-13.1-5.7-19-9a11,11,0,0,1-4.1-15.8c3.3-5.3,10.1-6.9,15.8-3.2,5.8,3.9,12.1,5,18.9,4.7a14.82,14.82,0,0,0,13.7-9.9c2.5-6.9,0-12.6-6.8-15.5-7.6-3.2-15.3-6.2-22.7-9.7-11.6-5.5-18.4-14.6-17.8-27.8.6-13.7,7.2-23.6,19.9-29.3a4.72,4.72,0,0,0,2.1-3.2c.5-7.2,4.8-12,11.2-12.2s10.7,4.6,11.5,11.8c.1,1.1,1.4,2.3,2.5,2.9,3.6,2,7.5,3.4,10.9,5.6a11.07,11.07,0,0,1,3,15.5,10.91,10.91,0,0,1-15.2,3c-4.8-3.1-9.8-4.3-15.3-3.1a9.42,9.42,0,0,0-7.9,9.1c-.2,3,.8,5.2,3.5,6.4,7.5,3.4,15,6.7,22.6,9.9,10.1,4.2,17.4,11.1,20.7,21.7,5.3,17.5-4.2,36.9-21.7,44.2-2.3,1-3.1,2.1-3.1,4.6.1,7.1-4.5,12-11,12S281,182.1,280.7,175C280.4,174.5,280.4,173.8,280.4,174.1Z"/><path class="cls-1" d="M134.4,154.1c-22.9,0-45.7.1-68.6-.1a16.17,16.17,0,0,1-7.5-1.7c-4.1-2.2-5.7-6.2-5.2-10.8a10.59,10.59,0,0,1,7.7-9.2,15.5,15.5,0,0,1,4.8-.7H202.4a19.13,19.13,0,0,1,4.8.6,11.14,11.14,0,0,1-2.4,21.8c-3.9.2-7.7.1-11.6.1Z"/><path class="cls-1" d="M119.2,98.7H65.3c-6,0-10.2-2.9-11.8-8a11.18,11.18,0,0,1,7.9-14,25.94,25.94,0,0,1,5.6-.5H174.5c6.6.6,11,5.3,10.9,11.5S180.6,98.5,174,98.6c-9,.1-18,0-27,0C137.6,98.7,128.4,98.7,119.2,98.7Z"/></g></g></svg>