<svg xmlns="http://www.w3.org/2000/svg" viewBox="0 0 408.95 306.6"><defs><style>.cls-1{fill:#15499f;}</style></defs><g id="Слой_2" data-name="Слой 2"><g id="Слой_1-2" data-name="Слой 1"><path class="cls-1" d="M409,276.2c-1.7,8.4-4.9,15.9-11.6,21.7-7.2,6.3-15.6,8.7-25,8.7H36c-14.6,0-25.9-6.1-32.2-19.4A40.64,40.64,0,0,1,.25,271c-.4-21.4-.2-42.8-.2-64.3,0-7.5,2.9-10.5,10.5-11,23.9-1.5,41.5-20.9,40.5-44.6-.9-21.2-18.7-39.1-39.7-40.2-8.6-.4-11.3-3.2-11.3-11.8,0-21.3-.1-42.6,0-63.9.1-16.8,9.7-29.6,25.5-33.9A42.06,42.06,0,0,1,36.15.1q168.3-.15,336.5-.1c18.7,0,33.2,12.3,35.6,28.9.1.5.4,1,.5,1.5v73.5c-1.7,5.1-5.6,6.8-10.7,7.1a42.45,42.45,0,0,0,0,84.8c5.1.3,8.9,2,10.7,7.1C409,227.2,409,251.7,409,276.2ZM204.55,16.9H36.85c-13,0-19.7,6.7-19.7,19.7,0,17.8.1,35.7-.1,53.5,0,3,.7,4.3,3.9,5,27.1,5.2,47.1,29.9,47.2,58s-20,53.2-47.2,58.4c-3.3.6-3.9,1.9-3.9,5,.1,17.7.1,35.4.1,53.1,0,13.5,6.6,20.1,20.2,20.1h334.5c13.5,0,20.1-6.6,20.1-20.1V218.9c0-6.2,0-6.2-5.8-7.7-27.3-7-45.8-31.2-45.2-58.8.6-28.4,19.8-51.3,48-57.4,2.1-.5,3.1-1.2,3.1-3.6-.1-18.8,0-37.5-.1-56.3-.1-8.7-4.8-15.3-12.2-17.2a33,33,0,0,0-8.3-.9Q287.9,16.85,204.55,16.9Z"/><path class="cls-1" d="M179,238.3a8.38,8.38,0,0,1-7.8-11.2,26.24,26.24,0,0,1,2.7-4.9q49.05-73.65,98.2-147.3a44,44,0,0,1,3.1-4.1,8.4,8.4,0,0,1,10.6-1.3,8.28,8.28,0,0,1,3.1,10.2,34.25,34.25,0,0,1-2.3,4.2q-49.5,74.25-98.9,148.4C185.55,235.4,183.25,238.3,179,238.3Z"/><path class="cls-1" d="M221.45,113c-.6,12.7-5.1,26-18.1,35.1-11.4,7.9-25.8,6.5-35.8-3.2-18.8-18.1-18.7-50.9.2-68.8,13.3-12.6,33.7-10,44.7,5.6C218.55,90.4,221.45,100,221.45,113Zm-16.9-2.4c-.3-7.1-1.8-13.8-6.4-19.6-6.1-7.6-14.7-7.8-21-.3-8.9,10.4-8.7,30,.3,40.3,5.9,6.6,14.2,6.7,20,0C202.55,125.2,204.25,118.2,204.55,110.6Z"/><path class="cls-1" d="M238.75,193.3c.6-12.7,5-25.9,18-34.9,11.5-8,25.7-6.7,35.8,2.9,18.9,18,18.8,51.3-.2,69.1-13.3,12.4-33.5,9.8-44.5-5.6C241.65,216.1,238.75,206.3,238.75,193.3Zm16.9,1.3c0,8.3,2.2,15.5,6.1,20.4,6.4,8.2,15.2,8.2,21.8.1,8.4-10.5,8-29.7-.8-39.7-6-6.8-14.4-6.7-20.3.2C257.65,181.4,256,188.3,255.65,194.6Z"/><path class="cls-1" d="M119.15,50.2c0,3.3.2,6.6,0,9.9a8,8,0,0,1-7.7,7.7c-4.4.3-8.5-2.3-8.8-6.9a182.7,182.7,0,0,1,0-22.2c.3-4.2,4.5-7.1,8.4-6.8a8.19,8.19,0,0,1,7.9,7.9,60.42,60.42,0,0,1,.2,10.4Z"/><path class="cls-1" d="M119.15,255.5c0,3.1.2,6.1,0,9.2a8,8,0,0,1-7.8,7.6c-4.3.2-8.2-2.3-8.5-6.7a136.2,136.2,0,0,1,0-20.2c.3-4.5,4.4-7.1,8.8-6.8,4.2.3,7.2,3.3,7.6,7.8.1,3,0,6.1-.1,9.1Z"/><path class="cls-1" d="M119.25,119.1c0,3.1.2,6.1,0,9.2a8.11,8.11,0,0,1-8,7.8c-4.1.2-8.1-2.6-8.4-6.9a137.62,137.62,0,0,1,.1-20.3c.3-4.2,4.6-7,8.6-6.7a8.2,8.2,0,0,1,7.7,7.7c.1,3.1-.1,6.1,0,9.2Z"/><path class="cls-1" d="M119.25,187.2c0,3.1.2,6.1,0,9.2a8.35,8.35,0,0,1-8,7.9c-4,.2-8.1-2.7-8.4-7a132.19,132.19,0,0,1,0-19.9c.3-4.5,4.4-7.3,8.7-7s7.5,3.4,7.8,8.1c0,2.8-.1,5.8-.1,8.7Z"/></g></g></svg>