<svg xmlns="http://www.w3.org/2000/svg" viewBox="0 0 307.37 153.9"><defs><style>.cls-1{fill:#15499f;}</style></defs><g id="Слой_2" data-name="Слой 2"><g id="Слой_1-2" data-name="Слой 1"><path class="cls-1" d="M0,74.6c2.4-5.6,6.7-7.3,12.7-7.3q141.45.15,283,.1c5.9,0,9.3,1.9,11,6.1a9.53,9.53,0,0,1-8,13c-1.3.1-2.6.1-3.9.1q-141,0-282.1.1C6.8,86.7,2.4,85,0,79.4Z"/><path class="cls-1" d="M0,7.3C2.4,1.7,6.7,0,12.7,0q141.45.15,283,.1c5.9,0,9.3,1.9,11,6.1a9.53,9.53,0,0,1-8,13c-1.3.1-2.6.1-3.9.1q-141,0-282.1.1C6.8,19.4,2.4,17.7,0,12.1Z"/><path class="cls-1" d="M202,134.6h93.3c1.1,0,2.2,0,3.3.1a9.58,9.58,0,0,1-.2,19.1,19.27,19.27,0,0,1-2.4.1H107.3c-4.6,0-8.3-1.3-10.4-5.7a9.53,9.53,0,0,1,7.8-13.5c1.1-.1,2.2-.1,3.3-.1Z"/></g></g></svg>