<?xml version="1.0" encoding="utf-8"?>
<!-- Svg Vector Icons : http://www.onlinewebfonts.com/icon -->
<!DOCTYPE svg PUBLIC "-//W3C//DTD SVG 1.1//EN" "http://www.w3.org/Graphics/SVG/1.1/DTD/svg11.dtd">
<svg version="1.1" xmlns="http://www.w3.org/2000/svg" xmlns:xlink="http://www.w3.org/1999/xlink" x="0px" y="0px" viewBox="0 0 1000 1000" enable-background="new 0 0 1000 1000" xml:space="preserve">
<metadata> Svg Vector Icons : http://www.onlinewebfonts.com/icon </metadata>
<g><path d="M389.9,143.6c145,0,263,117.9,263,263c0,49-13.9,97.1-40.2,139.1l-23.8,38l-33.6,27.2c-47.4,38.5-104.5,58.7-165.4,58.7c-145,0-263-117.9-263-263C126.9,261.5,244.9,143.6,389.9,143.6L389.9,143.6z M389.9,26.7C180.1,26.7,10,196.8,10,406.6c0,209.9,170.1,380,379.9,380c90.7,0,173.8-31.9,239.1-84.8c3,5.3,5.7,10.7,10.2,15.2l236.6,236.7c13.1,13,30.2,19.6,47.3,19.6c17.1,0,34.2-6.5,47.3-19.7c26.1-26.1,26.1-68.5,0-94.6L733.8,622.3c-6.5-6.5-13.9-11.3-22-14.6c36.6-58.3,58-127.1,58-201.1C769.8,196.8,599.8,26.7,389.9,26.7L389.9,26.7z"/></g>
</svg>